<svg xmlns="http://www.w3.org/2000/svg" display="none">
  <symbol id="awr" viewBox="0 0 1000 300">
    <title>Advanced Web Ranking</title>
    <path d="M342.9 113.5l-6.1 28.2h-10.5l21.5-94h11.9l20.9 94H370l-6.1-28.2h-21zm19.3-8.7L357.4 81c-1.4-6.7-2.6-14.5-3.8-21.5h-.4c-1.1 7.1-2.5 15.2-3.9 21.5l-4.9 23.8h17.8zm68.4-59.7v80.3c0 4.6.4 12.3.6 16.2H422l-.7-8.4h-.4c-2.2 4.7-7 9.5-14.2 9.5-11.3 0-19.5-12.3-19.5-34.6 0-23.8 9.9-35 20.2-35 5 0 9.8 2.2 12.4 7.9h.3V45h10.5zM420 99.9c0-1.4 0-3.1-.1-4.5-.7-7.1-4.9-13.1-10-13.1-8.9 0-12 12.4-12 25.8 0 14.2 3.6 25.7 11.4 25.7 3.3 0 7.9-1.8 10.3-11.6.3-1.3.4-2.8.4-4.5V99.9zm31.1-25.7l8.5 37.9c1 4.6 2.1 10.6 2.9 16.5h.4c.7-5.6 1.8-11.3 2.8-16.5l8.4-37.9h10.6L467 141.6h-9.5l-17.6-67.5h11.2zm77.2 52.1c0 5.2.1 11 .7 15.3h-9.6l-.7-7.1h-.4c-2.9 5.2-7.7 8.2-13.5 8.2-8.9 0-15.9-7.5-15.9-19.2 0-17 13.5-24.4 28.7-24.5v-2.1c0-9.1-2.4-15.2-10.7-15.2-4.2 0-7.9 1.3-11.2 3.5l-2.4-7.5c2.9-2.1 9.1-4.5 15.8-4.5 13.5 0 19.2 8.8 19.2 23.8v29.3zm-10.5-19.7c-5.6 0-18.5 1.1-18.5 15.8 0 8.9 4.5 12 8.2 12 4.7 0 8.6-3.5 9.9-10.2.3-1.3.4-2.6.4-3.9v-13.7zm25.7-15c0-7.9-.4-12-.6-17.4h9.3l.6 8.2h.3c2.9-5.4 8.4-9.2 15.5-9.2 9.3 0 16.3 6.8 16.3 23.1v45.3h-10.7V98.3c0-8.1-1.5-16-9.3-16-4.5 0-8.8 3.8-10 10.9-.4 1.7-.6 3.8-.6 6.1v42.4h-10.7V91.6zm89.4 48.4c-2.4 1.4-6.4 2.5-11.2 2.5-14.8 0-24.7-11.9-24.7-34.2 0-19.4 9.8-35.1 26.6-35.1 3.6 0 7.5 1 9.5 2.1l-2.1 8.8c-1.4-.7-4.2-1.8-7.7-1.8-10.9 0-15.6 12.8-15.6 26.1 0 15.8 6 25.2 15.9 25.2 2.8 0 5.3-.6 7.7-1.8l1.6 8.2zm15.9-31.1c0 20.8 8.2 25.1 15.9 25.1 4.7 0 8.5-1.1 11.2-2.5l1.8 7.8c-3.8 2-9.5 3.2-14.9 3.2-16.2 0-24.5-13.2-24.5-33.9 0-21.8 9.3-35.4 22.9-35.4 13.7 0 19.2 14.5 19.2 29.6 0 2.6-.1 4.5-.3 6.1h-31.3zm21.2-8c.1-13.4-4.9-19.4-10-19.4-7.1 0-10.6 10.2-11 19.4h21zm62.4-55.8v80.3c0 4.6.4 12.3.6 16.2h-9.2l-.7-8.4h-.4c-2.2 4.7-7 9.5-14.2 9.5-11.3 0-19.5-12.3-19.5-34.6 0-23.8 9.9-35 20.2-35 5 0 9.8 2.2 12.4 7.9h.3V45h10.5zm-10.6 54.8c0-1.4 0-3.1-.1-4.5-.7-7.1-4.9-13.1-10-13.1-8.9 0-12 12.4-12 25.8 0 14.2 3.6 25.7 11.4 25.7 3.3 0 7.9-1.8 10.3-11.6.3-1.3.4-2.8.4-4.5V99.9zM341 256.8l-16-94h19l4.6 37.5c1.3 10.7 2.1 21.5 3.2 32.9h.4c1.3-11.6 3.3-21.8 5.3-33l6.7-37.4H379l6.3 37.1c1.7 10.6 3.3 21.1 4.5 33.3h.3c1.3-12.3 2.4-22.3 3.6-33.2l4.6-37.2h17.8l-16.6 94h-18.8l-5.6-30.8c-1.5-8.6-2.9-19.4-4.2-30.8h-.3c-1.7 11.3-3.2 21.8-5.2 31l-6.3 30.7H341zm124.6-41.3h-21.3v25.4h24.1v15.9H426v-94h40.9v15.9h-22.6v21.6h21.3v15.2zm15.3-51.3c5.6-1.3 13-1.8 20.8-1.8 8.8 0 17.3 1.1 23.8 6.7 5 4.2 7.1 10.5 7.1 17 0 8.4-4.3 16.5-13.5 20.5v.6c10.9 3.1 16.6 12 16.6 22.4 0 7.7-2.5 13.8-7 18.4-5.6 6.1-15.1 9.5-30.8 9.5-7 0-12.8-.4-17-1.1v-92.2zm18.3 37.3h3.9c6.6 0 11.6-5.6 11.6-13.2 0-6.8-3.2-12.1-10.6-12.1-2.1 0-3.8.1-4.9.6v24.7zm0 41.6c1.1.3 2.5.3 4 .3 7.5 0 13.5-4.6 13.5-14.1s-6.4-14.4-13.7-14.4h-3.9v28.2zm71.2-78.9c5.7-1.1 13-1.8 19.9-1.8 10 0 19.1 1.5 25.1 7 5.7 5.2 7.5 11.4 7.5 19.5 0 10-5 19.1-14.5 23.4v.3c6.4 2.6 9.6 8.5 11.4 18.7 1.8 10.5 4.3 22 6 25.5h-19.1c-1.3-2.6-3.3-12.1-4.7-22.6-1.7-11.6-4.6-14.9-10.6-14.9h-2.8v37.5h-18.3v-92.6zm18.3 41h3.3c7.9 0 12.4-6.4 12.4-14.6 0-8.1-3.2-13.7-11.3-13.9-1.7 0-3.5.1-4.5.6v27.9zm62.2 30.1l-4.2 21.5H629l20.4-94h21.9l18.3 94h-17.7l-4-21.5h-17zm15.2-14.2l-3.1-19.7c-1-5.7-2.2-15.2-3.1-21.3h-.4c-1 6.3-2.4 15.9-3.3 21.3l-3.5 19.7h13.4zm33.7 35.7v-94h16.7l14.5 36.8c2.9 7.3 7.4 19.4 10 27.5h.3c-.6-9.9-1.8-26.2-1.8-43.5v-20.8h16v94h-16.7l-14.4-35.7c-3.2-7.9-7.4-19.9-9.6-28.3h-.3c.6 9.5 1.3 24 1.3 42.9v21.1h-16zm72-94H790V205h.4c1.5-3.9 2.9-8.1 4.5-12.1l12.5-30.1h20.2l-21.2 40.9 21.5 53.1h-20.1l-13.7-38.9-4.2 7.7v31.2h-18.3v-94zm82.2 0v94h-18.3v-94H854zm16.3 94v-94H887l14.5 36.8c2.9 7.3 7.4 19.4 10 27.5h.3c-.6-9.9-1.8-26.2-1.8-43.5v-20.8h16v94h-16.7L895 221.1c-3.2-7.9-7.4-19.9-9.6-28.3h-.3c.6 9.5 1.3 24 1.3 42.9v21.1h-16.1zm124.1-2.5c-4 1.7-12.5 3.3-19.4 3.3-10.9 0-19.1-3.1-25.2-9.3-8.1-7.8-12.4-21.8-12.1-37.9.4-34.2 19.8-48.4 40-48.4 7.1 0 12.3 1.4 15.2 2.8l-3.1 15.8c-2.8-1.4-6.3-2.1-10.7-2.1-12.5 0-22.4 8.5-22.4 32.9 0 22.6 8.8 30.8 17.4 30.8 1.7 0 2.9-.1 3.6-.4V219h-8.5v-14.9h25.2v50.2zM197.2 12.8c57.1 19.7 98 73.7 98 137.5 0 80.4-64.9 145.3-145.3 145.3S4.7 230.6 4.7 150.3c0-9.9 1.1-19.7 2.8-28.9C30.1 175 64.3 199 64.3 199L91 155.5l40.5 35.6 44.4-87.1 57.8 79.3c.5.1 69.6-134.2-36.5-170.5zm8.8 18.6c-.4 0-.4 0 0 0-.4.4-.4.4 0 0 0 .4 0 .4 0 0v.7s.4 0 .4.4c0 0 0 .4-.4.4h.8v.4h.4c.7-.7.7-2.1.7-3.5v.7s-1.1.4-1.4.7v.4c-.9-.2-.9-.2-.5-.2zm-49 53.3v.3h-.4c-.4.4 0 1.1-.4 1.8.4.7.4.4.7.7v.4c.7.7 1.1.7 2.1.7-.4.4-.7.4-.7 1.1 0 0 .4 0 .7.4v.4c.4 0 .4.4.7.4v.7c.4.4 1.1 1.1 1.8 1.1v.7c.4.4.7.7.7 1.1v.7s.4 0 .4.4l-.4.4c0 .7 1.1 1.1 1.4 1.4v.7c1.4.4 3.2 2.5 4.9 4.2l6.3-12.3 9.5 12.7c1.1-.4 2.1-.4 3.2-.4.4-.4.4-.7.7-.7 1.8.7 3.2.4 4.6-.4 1.1.4 1.8 1.1 2.1 1.8h.4c0 .4-.4.4-.4.7 1.8 1.1 3.5 1.8 5.3 1.4v-.4c.7-.4 2.1 1.4 2.5 1.8 0 0-.4 0-.4.4s.4 1.1.7 1.4c-.4.4-.4 1.1 0 1.4-.4.4-.7 1.1-1.1 1.8h.4c0 .4-.4 1.1-.7 1.1 1.4 1.4.7.7 0 .7-.4.7-.4 1.4-1.1 1.8.4.7.7 1.1 1.4 1.4 0 0-.4 0-.4.4.4.4.4.7.7 1.1.4.4.4 0 .7.4 0 0 0 .4-.4.4 2.5 1.8 8.8 14.5 5.6 18l23.6 32.1c8.8-21.9 24.3-69.1 9.9-105.4-.7-2.1-1.8-3.9-2.8-6 0 0 0-.4-.4-.4-1.4-.7-3.2-1.1-4.6-.7-.4-.4-.4-.7-.7-1.1-1.1 0-2.1-.4-2.8-.7-3.5-2.1-8.5 2.5-15.9-1.4l-.4-.4c-2.1-.7-3.2-.4-5.3-1.4v-.7h-.7c-.4-.4-1.1-.7-1.1-1.4.4-.4 2.1-1.8 2.1-2.1-.4-1.4-.4-2.5 0-3.9-.4.4-.7.4-1.1.7h-.4c0-.4-.4-.4-.4-.7-.4 0-.7-.4-.7-.4-1.8 0-2.5 1.1-4.2.4-.4 0-.7.4-.7.4-.4 0-.7-.4-1.1-.7-1.4 1.1-3.2 1.1-4.9.4-.4 0-.4.4-.7.4-.4 0-.7-.4-1.1 0-2.1.7-3.2 0-5.3 1.8-.4 0-.4 0-.7-.4-3.2.4-6.3 2.8-9.5-.7-.4 0-.4 0-.7.4-4.2 2.8-16.9 16.9-17.6 21.2-.7 1.1-2.8 3.9-3.9 4.9-.4.4-.7 1.4-.7 2.5l.4-.4c3.2.4-.7 9.5-1.8 11.3 2.4-1.1 2.4-.1 3.1.3zM95.3 30c.4 0 1.1 0 1.8-.4-1.1-1.3-1.5.1-1.8.4zm2.8-10.9l1.8-1.8c2.1.4 3.9 0 5.3-1.8-.4-.4-.4-.7-.7-1.1.4-.4.4-.7.7-1.4 0-.4-.7-1.1-1.1-1.1-6 2.1-11.6 4.2-16.9 7.1 1.4.4 2.8.4 4.2.4 2.5.4 4.6.4 6.7-.3zM207 33.6s-.3 0 0 0c-1.1 0-1.8 0-2.1.7.7 1.4 1.1 2.5 1.1 3.9l.4-.4h1.1c.4-.7.7-1.4.4-2.1.2-.7-.2-1.4-.9-2.1zM100.6 21.2s0 .4-.4.7l.7.7c-.7 0-1.4.4-1.8 1.1.4 0 .7.4 1.1.4-.7.4-1.8.7-2.1 1.4v.7h6.3v.7h.4l.4-.4c.4 0 .7 0 1.1.4-.7.4-1.1 1.1-2.1 1.1v.4h.7c.7-.7 1.8-1.1 2.1-1.8h.4c0 .4.4.4.4.7s-.4.7-.4 1.1v.4h.4l.4-.4v.7c.4 0 .7.4 1.1.4.4-.7.7-1.1.7-1.8-.4-.4-.7-.4-.7-.7h-.4c0 .4-.4.4-.4.4-.4-.4-.4-.7-.4-1.1.7-.4.7 0 1.4-.7v-.4h-.5c-.4 0-.4.4-1.1.4l-.7-.7 1.1-1.1c-.4-.4-1.1-.7-2.1-.7 0 0 0 .4-.4.4-.7 0-1.4-.4-2.1-1.1l.7-.7c-.4 0-.7-.4-.7-.4-.7 0-.7.7-1.4 1.1 0-1.4 2.1-2.5 1.8-3.5.4 0 .7 0 1.1-.4v-.4h-.4s-1.1.4-1.4.4c-.7-.5-2.1 1.7-2.8 2.7zM234.5 48c-.4-.4-.4-.7-.7-1.1h-.4l-.4-.4h-.4c-.4 0-.4 0-.4-.4v.4h-.4v.7c.6.5 1.7.5 2.7.8-.3 0-.3 0 0 0-.3 0-.3 0 0 0zm-6-7c0 .4-.4.4-.4.7.4.4.4.7.7 1.1v1.1l.4.4s.4 0 .4-.4c0 .4.4.7.7 1.1 0 0 0-.4.4-.4s.7 0 .7.4c-.4-.4-.4-.7-.4-1.1-1-1.2-1.7-2.2-2.5-2.9zm-26.4 65.2c0-.4-.4-.4-.4-.4-.4.4-.4.7-.7.7v.4h.4c.4 0 .4-.7.7-.7zm-29.3-69.1c-.3-.4-.3 0 0 0zm44.5 3.5c-1.1 0-.4 0 0 0-1.4.4-2.5.4-3.2-.4-.7.4-1.4 0-1.8.7 1.4 1.1 2.8 1.8 4.6 2.5.4 0 .4-.4.7-.7.4-.7.4-1.7.4-2.4-1.1 0-.4.3-.7.3zm-22.6-20.4s-11.3-3.5-12.3-3.9c0 .4.4.4.7.4v.4c1.1 0 2.1.4 2.8 1.1h.8s0 .4-.4.4c.4.4.7.4 1.1.7 0 0 0 .4-.4.4.4.7 1.1 1.4 1.8 2.1 0 .4-.4.4-.4.7.4.4.7.7.7 1.4-.4-.4-.4-.7-.7-.7-.4.4-.4 1.1-.4 1.8h.4v.4h-.4c-.4 1.1-.4 1.8-1.1 2.5-3.2.4-8.5-2.5-11.6-1.4 0 .4-.4.4-.4.7-.7 0-1.4 0-1.8.7v.4c.7 0 .7.4 1.1 1.1.4.7-1.4 7.1-2.1 7.8 0 .4 0 0 .4.4.4 0 .4-.4.7-.4v.4c-.4.4-.7.4-.7.4h.7c0 .4 0 .7-.4 1.1.4 1.1-.4 1.1-.4 2.1.7-.4 1.4-.4 2.1 0 .4 0 .7-.4.7-.4.4 0 3.2 2.8 3.5 2.5v-.4.4c.7-.4 1.1-.7 1.8-1.4 1.4.4 2.5.4 3.9 0l.4.4c.4-1.1 1.4-1.8 2.5-1.8 0-1.1.4-1.8 2.1-2.5-.4 0-.4-.4-.7-.4 0-.4-.4-.7-.4-1.1 1.1-.7 1.8-1.8 2.5-2.8l-.4-.4c.7-1.1 1.8-.4 2.5-.7 0 0 0-.4.4-.4.4-.4 1.4-.4 1.8-.7 1.8-3.9 4.6-3.2 9.2-3.9l.4-.4c1.4-1.1 9.9 6.7 10.2 8.1h.7s0 .4.4.4h-.4.7l.4.4v.7c.4.4.7.4.7.7h.4c.7 1.1 1.1 1.8 1.1 2.8h-.4c-.4.4-.7.7-.7 1.1h.7c-.4 0-.7 0-.7.4h.8c.4-.4.4-.7 1.1-1.1V40c.4 0 1.1-.4 1.1-.7v-.7c-.4-.4-.7-.4-1.1-.7 0-.7.7-1.8 1.4-1.8s1.4.4 1.4 1.1c.4 0 .4.4.7.4 0-.4.4-.7.4-.7-1.4-1.9-16.2-12.2-28.9-16.7zM67.1 50.1c0-.4 0-.7-.4-1.1 0 .4.4.8.4 1.1zM60.4 84l-.4.3c.7 1.1 2.5 1.1 3.5 1.1V85c-.7-.7-2.1-1-3.1-1zm7-2.9c-1.1 0-2.1-.4-2.8-1.4l.4-.4c-.4-.7-2.1-.7-2.8-1.1-.4-.4-.4-.7-.7-.7-1.8-.4-3.2-1.1-3.9-2.1-3.9-.4-4.6-.7-8.1.4-.4.4-.4.4 0 .7-.4 0-.4.4-.7.4.7-.4 4.9-.7 5.3-1.1-.4 0-.7 0-1.1.4 1.4 1.1 4.9.7 6.3 1.8.4 0 .4.7.4 1.1.7.4 1.8.4 2.5 1.1l-1.1 1.1c1.4-.4 2.8 0 4.2.4.7-.2 1.4-.6 2.1-.6zM21.6 85c4.2 2.8 14.8 7.4 20.1 7.8l.4-.4c.4 0 .4.4.7.7h-.4v.4c1.1 1.1 2.1 2.5 3.5 3.5v.4h-.4s.4 0 .4.4v.4s-.4.4-.4.7c.4.7.7 1.1 1.4 1.4l.4-.4c0-.4-.4-.4-.4-.4v-.4c.4.4.7.4.7.7.4 1.1 1.4 2.8 2.5 3.2l-.4-.4c.4.4.7.7.7 1.4l.4-.4c.7 0 1.4.4 2.1.4 0 .4.4.7.7 1.1v-.4c0 .4 0 1.1.4 1.1.7 0 1.1-.4 1.4-.4 0-.7-.7-.7-.7-1.4.4-.4 1.1-.7 1.4-.7v-.7c1.4-.4 2.1 0 2.1 1.1.4 0 .4 0 .7-.4 0 .4 0 .4.4.7h-.7c0 .4.4 1.1.4 1.4-.4.4-1.4.7-2.1.4 0 .4-.4.7-.7 1.1 0-.4 0-.4-.4-.7-1.4.4-1.8 1.1-2.1 2.8H53l-1.4 1.4c0 .4 0 .4.4.7l-.4.4c-.4-.4-.4-1.1-1.1-1.4 0 .4.4.7.7 1.4-.4 0-.4.4-.7.7 0 0 0-.4-.4-.4 0 .4-.4.7-.4 1.1l1.1 1.1c0 .4-.4.4-.4.7s.4.4.4.7-.4.4-.7.4c.4 1.1.4 1.8 0 2.8l.7.7c-.4.7-1.1 1.4-1.4 2.1-.4.4-1.1 0-1.4.4 0 .4.4.7 0 1.1h-.7v.4l.4.4c-.7.7-1.1.7-2.1 1.1.4 1.1 0 1.8-1.1 2.1 0 0 0 .4.4.4-.4.4-.7.4-1.1.7.4.7.4 1.1.4 2.1l-.4.4c1.1 1.4 1.4.4 2.1 0 .4 2.1-.7 3.2-3.2 4.2 0 1.1 1.1 1.4 1.1 2.5h-.7c3.5 3.2 7.4 9.5 8.5 14.1v1.4c1.8 2.8 5.3 4.6 8.1 6 0 .4.4.7.4 1.1 3.5 1.8 3.9 4.9 1.4 9.9-.4 0-.4.4-.7.4v.7l.4.4c-.4 1.1-.4 2.1-.4 3.2-1.4 2.1-2.1 6-2.5 9.2l4.9 4.9 27.1-43.7 26.1 22.9c.4-.4.7-.7.7-1.1v-1.1c0-1.1.4-1.8 1.4-2.1.4-3.2 1.1-6.3 1.1-9.5h.4c0 .4.4.4.4.7 1.1-1.1 2.1-2.5 2.5-3.9.4 0 .7-.4 1.1-.4 10.9-7.4-6.7-18.7-13.4-14.5.7-1.1.4-2.1-.7-2.8l-.4.4c-1.1 0-2.8-1.8-3.5-2.1h-1.4c-.7.4-1.8 2.1-2.8 2.5 0-.4 0-.7.4-1.1-.7 0-1.8.4-2.5 0 0-.4-.4-1.1-.4-1.4-.7 0-1.4 1.1-2.1.7 1.4-.7 2.5-3.9 4.2-4.6.4-.7-1.8-5.6-2.5-6-2.1-.4-4.6-4.6-7.8-3.5v.4c-.7-.4-1.1-.4-1.8-.4 0 0-.4 0-.4.4-.4-.7-1.1-2.1-2.5-2.1l-.4.4v-1.8c-1.4-2.8-3.5-2.1-5.6-2.1.7-.4 1.4-.7 1.8-1.4-.4-.4-.7-.4-1.1-.7 0 0 0-.4-.4-.4-.4-.4-.7-.4-1.1-.4l-.4.4c0-.7-.7-1.1-1.1-1.4v-.4h1.5c-3.2-.7-10.6-2.1-13.4-2.5-.4-.4-.4-.7-.4-1.4-.4 0-.7 0-.7.4 0 0 0 .4.4.4h.5l.4.4c0 .4-2.8 1.1-3.2 1.1 0 .4 0 .4-.4.4.4.4 1.1 1.8.7 2.5 0 .4-.7.4-1.1.4-.4-.4-.7-1.1-.7-1.4 0-.7.4-1.1.7-1.4 0-.7-.4-1.1-.4-1.8.7 0 1.4-.4 1.8-.7-.4-1.8-2.5.4-3.2.4 0-.4.4-.4.4-.7l.4.4.7-.7c-.4-1.1-2.5-3.5-4.2-3.2-1.1.7-3.9 2.1-4.9.7-1.1-3.9-3.9-4.2-2.1-8.8 0-.4.4-.4.4-.7.4-.7.4-1.4 0-2.1-.4 0-.7-.4-1.1-.4-.4-.4 0-.4 0-.7-1.1-.4-2.1 0-3.2-.7-1.4.4-3.5.7-4.9-.4v.4l-.4-.4c.4-1.4 1.8-2.8 1.8-4.6h-.4c0-.4.4-.4.4-.7 0 0 .4 0 .4-.4 0 .4.4.7.4 1.1 0-.7.4-1.4.4-2.1h-.4c.4-1.1 2.1-2.1 1.8-3.2-1.4-1.4-4.9-.4-6.7.4-.4.7-.4 1.4-.4 2.1l-.4.4v.7c-.4.4-1.1.7-1.4.7l.4.4-.4.4h-.7v-.4c-6 .4-2.8-.4-6.7-.4-1.1-1.4-2.5-3.9-2.8-5.6-1.8 2.8-4.6 8.5-4.6 8.5l-.8-.2zm46.2 0c.4 0 .4-.4.7-.4 1.1.4 1.8.4 2.8.4.4.4.7 1.1 1.1 1.1.4-.7.7-1.1 1.4-1.4l.4.4c1.4.7 1.1-1.1 3.2.4.4 0 .4-.4.7-.7-1.1-1.4-2.8-2.5-4.2-2.8-1.4 0-3.2-.4-4.6-.4.4.4 1.1.4 1.4.7 0 .4.4 1.1.7 1.4-.7.4-2.5 0-3.5-.4l-.4.4c-.4 1-.1 1 .3 1.3zm31 45.9c2.5.4 3.5-.4 3.9-2.1-.4-.4-2.8-.7-3.5-.7-.7 1-.7 2.1-.4 2.8zM95.6 27.2c-1.7 1.8-2.1 2.8-.7 2.8h-.4c0-.7.7-.7.7-.7.4-.4.4-1.1.7-1.1.1-.6-.3-1-.3-1zm-11.3-6.7c-.7.4-1.1.7-1.8.7.8.4 1.5 0 1.8-.7zm-5.2 87.8h1.4c0-.4.4-1.1.4-1.4h-1.4c.4 0 .4 0 .4.4v.4c-.5.6-.8.6-.8.6zM36.4 61.1l-.4-.4h.4c.7.4 1.1.7 1.1 1.1.4 0 .4.4.7.4.4 0 .7-.4.7-.4s0 .4.4.4h.4l-.4-.4v-.4c.4 0 1.1.4 1.1 1.1h1.1c-.4-.4-1.1-.7-1.1-1.4.4 0 .4 0 .7-.4 0-.4-.4-.4-.7-.7-.4 0-1.1.4-1.1 0 0 0 0-.4.4-.4 0 0 4.2.4 3.9.4 0-.4 0-.4.4-.7 0 .4.4.7.4.7h.7v-.4c1.1-.4 2.1 0 3.2.7.4.4.4.7.4 1.1 1.8-.4 4.6-.7 4.6 1.8 0 .7-.4 1.4-.4 2.1h.7v.4c0 .4-.4.4-.7.4.4.4.4 1.1.7 1.4h.4v.7c1.1.7 1.1 1.8 1.8 2.8h1.1v.4C58.6 66 54 64.6 55.1 60c1.4-3.5 3.9-4.6 6.7-6 .4-.4.7-1.1 1.4-1.4h1.4c.4 0 .4-.4.7-.4 0 0-.4 0-.4-.4 0 0-.4.4-.7.4-.4 0-.4-.4-.4-.4l.4.4c.4-.4.4-.4.7-.4 0-.4-.4-.4-.7-.4V51c.4 0 .7.4.7.4V51c.4 0 .4.4.7.4l.4-.4h.4v-.4s0-.4-.4-.4c0 0-.4.4-.4.7v-.7h-1.1v-.7.8h.5v-.4s.4 0 .4.4c0 0 0-.4-.4-.4.4 0 .4.4.7.4v.4c0-.4-.4-.7-.4-.7h.4v-.4c-.4-.4-1.8-1.1-1.8-1.4h.4c.4.4.7.7 1.1.7v-.4c-.4-.4-.7-.4-.7-.7l.4.4v-.4h.4c0-.4 0-.4-.4-.4-.4-.4-.7-.4-1.1-1.1l.7.7c.3.3.3 0 .3 0-.4-.4-1.4-1.1-1.8-1.1v-.7h.4s-.4 0-.4.4v.4c.4 0 .4 0 .7.4V46c.4.4.7.4 1.1.7 0-.7-.4-.7-.7-1.1l.4.4c-.4-.7-.4-1.4-.4-1.8h.4v-.4-.4.4c0-.4.4-.4.4-.4v.4h.4-.5s0 .4-.4.4h.4c-.4 0-.4 0-.7.4l.4.4v.4h-.4v.4h.7-.7c0 .4.4.4.4.4s.4 0 .4-.4c0 .4 0 .4-.4.4h.3v.4h.4c-.4.4-.7.7-.7 1.4v.4c0-.4.4-.4.4-.7h.4c.4-.7.7-1.4 1.1-1.8 0-.7 0-1.4-.4-1.8 0 .4.4.4.7.4v.7c.4-.4 1.1-.7 1.1-1.4h.4c.4-.7.7-1.1.7-1.8-.4 0-.4 0-.7-.4.4 0 .4-.4.4 0 0-.4.4-.7.4-1.1 0 .4-.4.7-.4.7 1.1-.7 2.8-1.4 4.6-1.1 0-.4 0-.4.4-.7h.4v.7c.4 0 .7-.4.7-.4v.4c.4 0 1.1 0 1.4-.4 0-.4 0-.7-.4-.7h-.4s0 .4.4.4h.4v.4c-.4 0-.4 0-.7.4-.7-.4-1.1-.7-1.4-1.4 0-.4.4-.4.7-.7-.4 0-.4 0-.4-.4.4-.4.7-1.4 1.4-1.8v-.4h.4v.4h.4c.4-.4.4 0 .4-.4h.4v.4h.4s0-.4.4-.4h.4c.4-.4.7-1.1 1.1-1.4 0 0 0 .4-.4.4 0 0 .4 0 .4.4v-.4h.7v.4c.4 0 .4-.4.7-.7 0 0 .4 0 .4.4v-.4c.4 0 .7 0 1.1-.4v-.4h-.4s0-.4.4-.4v-.4h.4c.4-.4.7 0 1.1 0s.4-.4.7-.4v-.4s.4 0 .4.4c.7 0 1.4-.7 2.1-.7 0 0 0-.4.4-.4v-.4l.4.4s.4-.4.4 0c-.4.4-.7.7-1.1.7v.4c.7-.4 1.8 0 2.8 0-.7 0-1.1 0-1.4.4v.4h-.4v-.4c-.7 1.1-1.8 1.4-2.8 1.1h0s-.4.4-.7.4c.4 0 .4-.4.7-.4-.7.4-.7 1.1-.4 1.8 0 .4.4.4.4.7h.4s0-.4.4-.4h.7v-.4c.4-.4.7-1.1 1.4-1.1v-.7h.4v.4l.4-.4v.4h.7c0-.4.4 0 .4-.4h.4v-.4c.4 0 0 0 .4.4.7-.4 1.8-.7 2.5-.7h1.5c0-.4-.4-.4-.7-.4 0 0 .4 0 .4-.4-.4-.4-.7-.7-1.1-.7-.4.4-1.1.4-1.4.4v-.4c-.4-.4-.7 0-1.1 0 0 0-.4 0-.4-.4h-.4l-.4-.4h-.7 1.1c-.4-.7-1.1-1.1-1.8-1.4v-.7s-.7-.4-1.1-.4c.4-.7.7-1.1 1.4-1.4l-.4-.4h-.4v-.4c-.4 0-.7.4-1.1.4-.4-.7-.7-1.1-1.4-1.1.4 0 .7-.4 1.1 0 .4 0 .4.4.7.4.4 0 2.1-.7 2.5-1.1-1.8-5.3-11.6 2.8-12.7 3.5.7-1.4 2.1-3.2 3.5-4.2C62.1 33.6 47 46.6 34.6 62.5c1.1-1.4 1.4-1.4 1.8-1.4zM67.1 42c.4 0 .4.4.4.4V42s.4 0 .4-.4c-.1.1-.1.4-.8.4zm15.5 43.4c-.4-.4-1.8-.4-2.5-.4l-.4.4v.7c1.1 0 1.8-.4 2.9-.7-.4.3 0 .3 0 0z"/>
  </symbol>
  <symbol id="facebook" viewBox="0 0 56.693 56.693">
    <title>Facebook</title>
    <path d="M40.43,21.739h-7.645v-5.014c0-1.883,1.248-2.322,2.127-2.322c0.877,0,5.395,0,5.395,0V6.125l-7.43-0.029  c-8.248,0-10.125,6.174-10.125,10.125v5.518h-4.77v8.53h4.77c0,10.947,0,24.137,0,24.137h10.033c0,0,0-13.32,0-24.137h6.77  L40.43,21.739z"/>
  </symbol>
  <symbol id="twitter" viewBox="0 0 56.693 56.693">
    <title>Twitter</title>
    <path d="M52.837,15.065c-1.811,0.805-3.76,1.348-5.805,1.591c2.088-1.25,3.689-3.23,4.444-5.592c-1.953,1.159-4.115,2-6.418,2.454  c-1.843-1.964-4.47-3.192-7.377-3.192c-5.581,0-10.106,4.525-10.106,10.107c0,0.791,0.089,1.562,0.262,2.303  c-8.4-0.422-15.848-4.445-20.833-10.56c-0.87,1.492-1.368,3.228-1.368,5.082c0,3.506,1.784,6.6,4.496,8.412  c-1.656-0.053-3.215-0.508-4.578-1.265c-0.001,0.042-0.001,0.085-0.001,0.128c0,4.896,3.484,8.98,8.108,9.91  c-0.848,0.23-1.741,0.354-2.663,0.354c-0.652,0-1.285-0.063-1.902-0.182c1.287,4.015,5.019,6.938,9.441,7.019  c-3.459,2.711-7.816,4.327-12.552,4.327c-0.815,0-1.62-0.048-2.411-0.142c4.474,2.869,9.786,4.541,15.493,4.541  c18.591,0,28.756-15.4,28.756-28.756c0-0.438-0.009-0.875-0.028-1.309C49.769,18.873,51.483,17.092,52.837,15.065z"/>
  </symbol>
  <symbol id="googleplus" viewBox="0 0 512 512">
    <title>Google+</title>
    <path d="M317.686,229.75c1.752,9.361,2.709,19.162,2.709,29.398C320.395,339.125,266.852,396,186,396c-77.349,0-140-62.651-140-140  s62.651-140,140-140c37.803,0,69.385,13.911,93.627,36.487l-39.469,39.465v-0.09c-14.697-14.001-33.333-21.174-54.158-21.174  c-46.198,0-83.736,39.024-83.736,85.227c0,46.194,37.538,85.312,83.736,85.312c41.913,0,70.436-23.977,76.307-56.875H186V229.75  H317.686z M422.25,238.5v-43.75h-35v43.75H343.5v35h43.75v43.75h35V273.5H466v-35H422.25z"/>
  </symbol>
</svg>
